<svg width="14" height="14" viewBox="0 0 14 14" fill="none" xmlns="http://www.w3.org/2000/svg">
<path fill-rule="evenodd" clip-rule="evenodd" d="M7 0.666667C3.5022 0.666667 0.666667 3.5022 0.666667 7C0.666667 10.4978 3.5022 13.3333 7 13.3333C10.4978 13.3333 13.3333 10.4978 13.3333 7C13.3333 3.5022 10.4978 0.666667 7 0.666667ZM0 7C0 3.13401 3.13401 0 7 0C10.866 0 14 3.13401 14 7C14 10.866 10.866 14 7 14C3.13401 14 0 10.866 0 7Z" fill="#429CC2"/>
<path fill-rule="evenodd" clip-rule="evenodd" d="M6.74546 2.54541C6.95633 2.54541 7.12727 2.70369 7.12727 2.89894V6.92282L9.97069 8.23923C10.1593 8.32655 10.2357 8.53891 10.1414 8.71354C10.0471 8.88818 9.81779 8.95896 9.62919 8.87165L6.57471 7.45752C6.44536 7.39764 6.36365 7.27522 6.36365 7.14131V2.89894C6.36365 2.70369 6.53459 2.54541 6.74546 2.54541Z" fill="#429CC2"/>
</svg>
