<svg xmlns="http://www.w3.org/2000/svg" fill="none" viewBox="0 0 14 14"><path fill="#429CC2" d="M7.879 3.515H5.682a.41.41 0 0 0-.41.41v3.104h-.469a.41.41 0 0 0 0 .82h.469v.938h-.469a.41.41 0 0 0 0 .82h.469v.908a.41.41 0 1 0 .82 0v-.908H7.88a.41.41 0 0 0 0-.82H6.092V7.85H7.88a2.167 2.167 0 1 0 0-4.335zm0 3.514H6.092V4.335H7.88a1.346 1.346 0 1 1 0 2.694z"/><path fill="#429CC2" d="M7 0C3.14 0 0 3.14 0 7s3.14 7 7 7 7-3.14 7-7-3.14-7-7-7zm0 13.18A6.187 6.187 0 0 1 .82 7 6.187 6.187 0 0 1 7 .82 6.187 6.187 0 0 1 13.18 7 6.187 6.187 0 0 1 7 13.18z"/></svg>