<svg xmlns="http://www.w3.org/2000/svg" fill="none" viewBox="0 0 42 42"><g fill="#44C6FE" clip-path="url(#clip0)"><path d="M2.395 28.093h17.45l-.231.184a.752.752 0 0 0 0 1.2l1.157.87-.668 1.287a.745.745 0 0 0 .52 1.073l1.417.276-.046 1.447a.742.742 0 0 0 .61.754l-1.595 3.872a1.13 1.13 0 0 0 1.394 1.506l1.417-.46.616 1.263c.19.388.584.635 1.016.635h.038c.445-.015.84-.29 1.01-.703l.706-1.731.656 1.602c.166.415.562.692 1.01.703h.039c.432.003.827-.244 1.014-.634l.616-1.263 1.417.46a1.131 1.131 0 0 0 1.394-1.507l-1.546-3.754a.74.74 0 0 0 .56-.744l-.045-1.446 1.417-.276a.745.745 0 0 0 .519-1.075l-.667-1.284 1.158-.87a.749.749 0 0 0 .297-.596c0-.237-.11-.46-.299-.605l-.232-.184h5.128a.675.675 0 0 0 .69-.682V.666a.661.661 0 0 0-.69-.665H2.395a.662.662 0 0 0-.69.665v26.745a.674.674 0 0 0 .69.682zM25.43 40.2l-.452-.926a1.136 1.136 0 0 0-1.365-.58l-1.08.35 1.738-4.221.056-.015.588 1.324a.744.744 0 0 0 1.03.355l.5 1.224L25.43 40.2zm5.316-1.634a1.136 1.136 0 0 0-1.364.58l-.452.926-1.852-4.526.102-.087 1.1.937a.745.745 0 0 0 1.165-.264l.588-1.324.114.03 1.68 4.078-1.081-.35zm1.34-8.053l.517.991-1.103.212a.742.742 0 0 0-.601.753l.035 1.124-1.087-.285a.743.743 0 0 0-.87.418l-.457 1.03-.858-.73a.742.742 0 0 0-.965 0l-.856.729-.457-1.029a.742.742 0 0 0-.87-.42l-1.088.286.035-1.124a.742.742 0 0 0-.602-.756l-1.102-.214.518-.995a.742.742 0 0 0-.214-.94l-.901-.678.9-.674a.744.744 0 0 0 .215-.94l-.518-.997 1.101-.215a.742.742 0 0 0 .603-.755l-.035-1.125 1.088.285a.742.742 0 0 0 .869-.418l.457-1.03.856.728c.277.24.688.24.967.002l.856-.73.458 1.031a.741.741 0 0 0 .87.417l1.086-.284-.035 1.127a.743.743 0 0 0 .603.752l1.101.215-.517.996a.742.742 0 0 0 .214.94l.901.687-.901.69c-.294.175-.383.603-.214.926zM3.11 1.405h35.817V26.69H33.96l.296-.561a.74.74 0 0 0-.519-1.068l-1.416-.274.045-1.447a.746.746 0 0 0-.934-.743l-1.399.367-.587-1.323a.746.746 0 0 0-1.164-.266l-1.101.937-1.102-.937a.745.745 0 0 0-1.163.265l-.589 1.324-1.398-.367a.745.745 0 0 0-.934.744l.045 1.447-1.416.275a.748.748 0 0 0-.528.407.73.73 0 0 0 .01.659l.296.56H3.11V1.405z"/><path d="M6.358 12.993h29.234a.702.702 0 0 0 0-1.404H6.358a.702.702 0 0 0 0 1.404zM6.358 9.306h15.187a.702.702 0 0 0 0-1.404H6.358a.702.702 0 0 0 0 1.404zM6.358 16.768h29.234a.702.702 0 0 0 0-1.404H6.358a.702.702 0 0 0 0 1.404zM27.18 24.883a4.002 4.002 0 1 0 0 8.004 4.002 4.002 0 0 0 0-8.004zm0 6.6a2.598 2.598 0 1 1 0-5.196 2.598 2.598 0 0 1 0 5.196z"/></g><defs><clipPath id="clip0"><path fill="#fff" d="M0 0h42v42H0z"/></clipPath></defs></svg>