<svg xmlns="http://www.w3.org/2000/svg" fill="none" viewBox="0 0 42 42"><path fill="#44C6FE" d="M37.57 2.04H10.413c-2.357 0-4.274 1.9-4.274 4.228l-.175 23.914h-5.3c-.376 0-.663.332-.663.708v3.291c0 3.081 2.466 5.6 5.441 5.739v.04h22.87v-.045c.17.007.274.044.39.044h.017a5.75 5.75 0 0 0 5.715-5.779V13.264h6.904c.376 0 .663-.34.663-.715V6.509a4.46 4.46 0 0 0-4.43-4.469zM5.74 38.6h-.005c-2.42 0-4.374-2-4.374-4.42v-2.637h21.595v2.626c-.005 1.531.6 3.001 1.68 4.085.116.116.236.175.359.345H5.739zm27.334-4.42c0 2.42-1.936 4.42-4.356 4.42h-.014a4.42 4.42 0 0 1-4.387-4.43v-3.28a.705.705 0 0 0-.68-.708H7.323l.175-23.91c0-1.582 1.307-2.871 2.914-2.871H34.36c-.775.85-1.287 1.926-1.287 3.126V34.18zM40.64 6.52v5.382h-6.207V6.526c0-1.702 1.416-3.125 3.118-3.125h.019a3.1 3.1 0 0 1 3.07 3.115v.005z"/><path fill="#44C6FE" d="M15.972 18.782l3.506 2.398a.67.67 0 0 0 .76 0l3.497-2.397c1.214-.829 2.111-2.561 2.111-4.03v-4.85a.665.665 0 0 0-.363-.612l-5.339-2.626a.668.668 0 0 0-.594 0l-5.33 2.62a.664.664 0 0 0-.362.61v4.858c0 1.469.9 3.201 2.114 4.03zm-.753-8.463l4.633-2.286 4.634 2.293v4.427c0 1.025-.672 2.328-1.519 2.905l-3.123 2.136-3.11-2.135c-.848-.579-1.515-1.881-1.515-2.906v-4.434z"/><path fill="#44C6FE" d="M18.702 15.78c.127.13.3.203.481.204h.002c.18 0 .354-.073.48-.201l2.707-2.707a.68.68 0 1 0-.962-.963l-2.223 2.222-.888-.897a.68.68 0 1 0-.967.958l1.37 1.384z"/></svg>