<svg xmlns="http://www.w3.org/2000/svg" fill="none" viewBox="0 0 18 18"><g fill="#fff" clip-path="url(#clip0)"><path d="M17.846 14.863l-3.042-3.042 1.492-1.491a.527.527 0 0 0-.206-.874L7.14 6.473a.527.527 0 0 0-.667.667l2.983 8.95a.527.527 0 0 0 .874.206l1.491-1.492 3.042 3.042a.525.525 0 0 0 .745 0l2.238-2.238a.527.527 0 0 0 0-.745zm-2.61 1.864l-3.042-3.041a.527.527 0 0 0-.746 0l-1.26 1.26-2.38-7.139 7.139 2.38-1.261 1.261a.527.527 0 0 0 0 .746l3.04 3.041-1.49 1.492zM6.855 4.219a.527.527 0 0 0 .528-.528V.527a.527.527 0 0 0-1.055 0v3.164c0 .292.236.528.527.528zM2.754 2.008a.527.527 0 1 0-.746.746L4.245 4.99a.527.527 0 1 0 .746-.746L2.754 2.008zM4.245 8.72l-2.237 2.237a.527.527 0 0 0 .746.746L4.99 9.466a.527.527 0 1 0-.746-.746zM9.466 4.991l2.237-2.237a.527.527 0 0 0-.746-.746L8.72 4.245a.527.527 0 1 0 .746.746zM4.219 6.855a.527.527 0 0 0-.528-.527H.527a.527.527 0 0 0 0 1.055h3.164a.527.527 0 0 0 .528-.528z"/></g><defs><clipPath id="clip0"><path fill="#fff" d="M0 0h18v18H0z"/></clipPath></defs></svg>