<svg width="146" height="52" viewBox="0 0 146 52" fill="none" xmlns="http://www.w3.org/2000/svg">
<path fill-rule="evenodd" clip-rule="evenodd" d="M24.8871 8C15.5724 8 8 15.5781 8 24.9524C8 28.2418 8.92929 31.3005 10.536 33.8927L3.73616 38.1073C1.36697 34.2848 0 29.7722 0 24.9524C0 11.1833 11.1306 0 24.8871 0C32.6217 0 39.5315 3.54203 44.0881 9.07666L37.9119 14.1614C34.8064 10.3894 30.1249 8 24.8871 8Z" fill="#44C6FE"/>
<path d="M39.512 27.724L37.784 31.648L35.444 36.58C35.228 37.036 35 37.348 34.76 37.516C34.52 37.684 34.148 37.768 33.644 37.768H32.42C31.916 37.768 31.544 37.684 31.304 37.516C31.064 37.348 30.836 37.036 30.62 36.58L28.388 31.9L26.588 28.012H26.408V39.388C26.408 39.652 26.36 39.82 26.264 39.892C26.168 39.964 25.988 40 25.724 40H23.06C22.82 40 22.64 39.964 22.52 39.892C22.4 39.82 22.34 39.652 22.34 39.388V22.828C22.34 22.348 22.484 21.94 22.772 21.604C23.06 21.268 23.528 21.1 24.176 21.1H25.832C26.312 21.1 26.696 21.172 26.984 21.316C27.272 21.46 27.548 21.808 27.812 22.36L30.944 28.912L32.96 33.376H33.104L35.372 28.48L38.288 22.432C38.552 21.904 38.828 21.556 39.116 21.388C39.404 21.196 39.824 21.1 40.376 21.1H41.924C42.572 21.1 43.04 21.268 43.328 21.604C43.616 21.916 43.76 22.312 43.76 22.792V39.388C43.76 39.652 43.7 39.82 43.58 39.892C43.484 39.964 43.304 40 43.04 40H40.412C40.148 40 39.956 39.964 39.836 39.892C39.74 39.82 39.692 39.652 39.692 39.388V27.724H39.512ZM64.5179 37.948C64.5179 38.524 64.2899 38.92 63.8339 39.136C63.3059 39.376 62.7299 39.58 62.1059 39.748C61.5059 39.916 60.8819 40.048 60.2339 40.144C59.5859 40.24 58.9379 40.3 58.2899 40.324C57.6659 40.372 57.0659 40.396 56.4899 40.396C54.9059 40.396 53.5859 40.24 52.5299 39.928C51.4979 39.592 50.6699 39.16 50.0459 38.632C49.4459 38.08 49.0259 37.444 48.7859 36.724C48.5459 35.98 48.4259 35.2 48.4259 34.384C48.4259 33.544 48.5579 32.74 48.8219 31.972C49.1099 31.18 49.5659 30.496 50.1899 29.92C50.8139 29.32 51.6179 28.84 52.6019 28.48C53.6099 28.12 54.8339 27.94 56.2739 27.94H60.3059V27.328C60.3059 26.872 60.2579 26.452 60.1619 26.068C60.0659 25.684 59.8739 25.348 59.5859 25.06C59.3219 24.772 58.9499 24.556 58.4699 24.412C57.9899 24.244 57.3659 24.16 56.5979 24.16C55.7819 24.16 54.8939 24.232 53.9339 24.376C52.9739 24.52 52.1939 24.688 51.5939 24.88C51.3299 24.952 51.1379 24.964 51.0179 24.916C50.8979 24.868 50.8139 24.736 50.7659 24.52L50.2619 22.468C50.1659 22.084 50.2739 21.832 50.5859 21.712C51.5939 21.328 52.6979 21.064 53.8979 20.92C55.0979 20.752 56.2259 20.668 57.2819 20.668C59.7779 20.668 61.6019 21.22 62.7539 22.324C63.9299 23.428 64.5179 25.036 64.5179 27.148V37.948ZM60.2699 31.144H56.8139C56.4059 31.144 55.9619 31.168 55.4819 31.216C55.0259 31.264 54.5819 31.396 54.1499 31.612C53.7419 31.828 53.3939 32.14 53.1059 32.548C52.8419 32.956 52.7099 33.52 52.7099 34.24C52.7099 35.272 53.0579 35.992 53.7539 36.4C54.4499 36.808 55.3739 37.012 56.5259 37.012C56.6939 37.012 56.9219 37.012 57.2099 37.012C57.5219 36.988 57.8459 36.952 58.1819 36.904C58.5179 36.856 58.8659 36.796 59.2259 36.724C59.6099 36.652 59.9579 36.556 60.2699 36.436V31.144ZM78.149 36.724C78.917 36.724 79.685 36.628 80.453 36.436C81.221 36.244 81.857 36.028 82.361 35.788C82.625 35.668 82.805 35.632 82.901 35.68C83.021 35.728 83.117 35.848 83.189 36.04L84.089 38.128C84.329 38.512 84.257 38.812 83.873 39.028C82.889 39.58 81.821 39.94 80.669 40.108C79.541 40.3 78.485 40.396 77.501 40.396C74.813 40.396 72.749 39.58 71.309 37.948C69.893 36.316 69.185 33.892 69.185 30.676C69.185 29.164 69.389 27.796 69.797 26.572C70.205 25.324 70.781 24.268 71.525 23.404C72.293 22.516 73.205 21.844 74.261 21.388C75.341 20.908 76.553 20.668 77.897 20.668C78.881 20.668 79.829 20.776 80.741 20.992C81.677 21.184 82.553 21.496 83.369 21.928C83.585 22.048 83.717 22.168 83.765 22.288C83.813 22.408 83.777 22.588 83.657 22.828L82.757 24.952C82.661 25.144 82.553 25.264 82.433 25.312C82.337 25.36 82.145 25.324 81.857 25.204C81.281 24.988 80.681 24.808 80.057 24.664C79.433 24.496 78.773 24.412 78.077 24.412C77.261 24.412 76.553 24.592 75.953 24.952C75.377 25.288 74.897 25.744 74.513 26.32C74.153 26.896 73.889 27.568 73.721 28.336C73.553 29.08 73.469 29.86 73.469 30.676C73.469 31.516 73.541 32.308 73.685 33.052C73.829 33.772 74.069 34.408 74.405 34.96C74.765 35.512 75.245 35.944 75.845 36.256C76.445 36.568 77.213 36.724 78.149 36.724ZM96.5509 24.592V39.28C96.5509 39.592 96.4909 39.796 96.3709 39.892C96.2749 39.964 96.0829 40 95.7949 40H93.2029C92.9149 40 92.7109 39.952 92.5909 39.856C92.4709 39.76 92.4109 39.568 92.4109 39.28V24.592H87.1189C86.8309 24.592 86.6389 24.532 86.5429 24.412C86.4469 24.292 86.3989 24.112 86.3989 23.872V21.892C86.3989 21.628 86.4349 21.436 86.5069 21.316C86.6029 21.172 86.8069 21.1 87.1189 21.1H102.023C102.335 21.1 102.527 21.172 102.599 21.316C102.695 21.436 102.743 21.628 102.743 21.892V23.872C102.743 24.112 102.695 24.292 102.599 24.412C102.503 24.532 102.311 24.592 102.023 24.592H96.5509ZM114.034 20.668C116.794 20.668 118.834 21.376 120.154 22.792C121.498 24.208 122.17 26.152 122.17 28.624C122.17 29.248 122.098 29.764 121.954 30.172C121.81 30.58 121.606 30.904 121.342 31.144C121.078 31.384 120.766 31.552 120.406 31.648C120.07 31.744 119.698 31.792 119.29 31.792H109.714C109.738 32.728 109.882 33.52 110.146 34.168C110.41 34.792 110.77 35.308 111.226 35.716C111.682 36.1 112.21 36.376 112.81 36.544C113.41 36.712 114.058 36.796 114.754 36.796C115.522 36.796 116.278 36.7 117.022 36.508C117.766 36.316 118.414 36.088 118.966 35.824C119.35 35.656 119.614 35.728 119.758 36.04L120.73 38.092C120.898 38.476 120.814 38.752 120.478 38.92C119.566 39.472 118.57 39.856 117.49 40.072C116.41 40.288 115.378 40.396 114.394 40.396C111.49 40.396 109.27 39.616 107.734 38.056C106.198 36.496 105.43 34.024 105.43 30.64C105.43 29.056 105.646 27.652 106.078 26.428C106.51 25.18 107.098 24.136 107.842 23.296C108.61 22.432 109.522 21.784 110.578 21.352C111.634 20.896 112.786 20.668 114.034 20.668ZM114.106 24.16C113.458 24.16 112.882 24.292 112.378 24.556C111.874 24.796 111.442 25.132 111.082 25.564C110.722 25.996 110.434 26.488 110.218 27.04C110.002 27.592 109.882 28.168 109.858 28.768H118.138C118.138 28.12 118.078 27.52 117.958 26.968C117.838 26.416 117.622 25.936 117.31 25.528C117.022 25.096 116.614 24.76 116.086 24.52C115.582 24.28 114.922 24.16 114.106 24.16ZM130.945 46.696C130.945 46.96 130.897 47.128 130.801 47.2C130.705 47.272 130.525 47.308 130.261 47.308H127.417C127.177 47.308 126.997 47.272 126.877 47.2C126.781 47.128 126.733 46.96 126.733 46.696V22.936C126.733 22.72 126.769 22.552 126.841 22.432C126.913 22.312 127.069 22.192 127.309 22.072C128.509 21.544 129.769 21.184 131.089 20.992C132.433 20.8 133.705 20.704 134.905 20.704C136.465 20.704 137.797 20.956 138.901 21.46C140.005 21.964 140.905 22.66 141.601 23.548C142.321 24.436 142.837 25.48 143.149 26.68C143.485 27.88 143.653 29.164 143.653 30.532C143.653 31.876 143.473 33.148 143.113 34.348C142.777 35.524 142.261 36.568 141.565 37.48C140.869 38.368 139.993 39.076 138.937 39.604C137.881 40.108 136.645 40.36 135.229 40.36C134.581 40.36 133.909 40.324 133.213 40.252C132.541 40.18 131.785 40.048 130.945 39.856V46.696ZM139.297 30.496C139.297 29.344 139.177 28.384 138.937 27.616C138.721 26.824 138.397 26.188 137.965 25.708C137.533 25.204 137.005 24.844 136.381 24.628C135.757 24.412 135.061 24.304 134.293 24.304C133.813 24.304 133.237 24.352 132.565 24.448C131.917 24.544 131.377 24.664 130.945 24.808V36.256C131.689 36.448 132.337 36.58 132.889 36.652C133.465 36.724 133.993 36.76 134.473 36.76C135.169 36.76 135.805 36.652 136.381 36.436C136.981 36.22 137.497 35.872 137.929 35.392C138.361 34.888 138.697 34.24 138.937 33.448C139.177 32.656 139.297 31.672 139.297 30.496Z" fill="#272A2D"/>
</svg>
